<svg width="40" height="40" viewBox="0 0 40 40" fill="none" xmlns="http://www.w3.org/2000/svg">
<circle cx="20" cy="20" r="19.4" stroke="url(#paint0_linear_1_165)" stroke-width="1.2"/>
<path fill-rule="evenodd" clip-rule="evenodd" d="M16.4127 21.159C15.8754 21.159 15.4389 20.7225 15.4389 20.1852C15.4389 19.6495 15.8754 19.213 16.4127 19.213C16.95 19.213 17.3865 19.6495 17.3865 20.1852C17.3865 20.7225 16.95 21.159 16.4127 21.159ZM20.1984 21.159C19.6611 21.159 19.2246 20.7225 19.2246 20.1852C19.2246 19.6495 19.6611 19.213 20.1984 19.213C20.7357 19.213 21.1722 19.6495 21.1722 20.1852C21.1722 20.7225 20.7357 21.159 20.1984 21.159ZM23.0104 20.1852C23.0104 20.7225 23.4469 21.159 23.9842 21.159C24.5215 21.159 24.958 20.7225 24.958 20.1852C24.958 19.6495 24.5215 19.213 23.9842 19.213C23.4469 19.213 23.0104 19.6495 23.0104 20.1852Z" fill="url(#paint1_linear_1_165)"/>
<path fill-rule="evenodd" clip-rule="evenodd" d="M20.0167 11.6666C15.175 11.6666 11.6667 15.6217 11.6667 20.0125C11.6667 21.4146 12.075 22.8576 12.7917 24.1762C12.925 24.3941 12.9417 24.6686 12.85 24.9282L12.2917 26.7977C12.1667 27.2483 12.55 27.5813 12.975 27.4478L14.6583 26.9479C15.1167 26.7977 15.475 26.9888 15.9 27.2483C17.1167 27.9652 18.6333 28.3333 20 28.3333C24.1333 28.3333 28.3333 25.1368 28.3333 19.9874C28.3333 15.5466 24.75 11.6666 20.0167 11.6666Z" stroke="url(#paint2_linear_1_165)" stroke-width="1.5" stroke-linecap="round" stroke-linejoin="round"/>
<defs>
<linearGradient id="paint0_linear_1_165" x1="20" y1="0" x2="20" y2="40" gradientUnits="userSpaceOnUse">
<stop stop-color="#BD21E6" stop-opacity="0.74"/>
<stop offset="1" stop-color="#5719F4" stop-opacity="0.74"/>
</linearGradient>
<linearGradient id="paint1_linear_1_165" x1="20.1984" y1="19.213" x2="20.1984" y2="21.159" gradientUnits="userSpaceOnUse">
<stop stop-color="#B621E7" stop-opacity="0.3"/>
<stop offset="1" stop-color="#5E1AF3" stop-opacity="0.3"/>
</linearGradient>
<linearGradient id="paint2_linear_1_165" x1="20" y1="11.6666" x2="20" y2="28.3333" gradientUnits="userSpaceOnUse">
<stop stop-color="#B621E7" stop-opacity="0.64"/>
<stop offset="1" stop-color="#5E1AF3" stop-opacity="0.76"/>
</linearGradient>
</defs>
</svg>
